<svg width="507" height="279" viewBox="0 0 507 279" fill="none" xmlns="http://www.w3.org/2000/svg">
<path d="M98.7562 119.735C104.295 119.735 108.306 121.637 112.01 124.829C112.452 125.271 112.519 125.916 112.078 126.357L110.582 127.852C110.141 128.395 109.699 128.361 109.155 127.784C106.3 125.305 102.426 123.675 98.6882 123.675C90.0224 123.675 83.3956 130.976 83.3956 139.466C83.3956 147.956 90.0224 155.19 98.6882 155.19C103.446 155.19 106.267 153.288 109.155 151.08C109.699 150.639 110.141 150.707 110.48 150.911L112.112 152.405C112.553 152.745 112.452 153.492 112.044 153.899C108.306 157.533 103.582 159.231 98.7222 159.231C87.7455 159.231 78.9098 150.503 78.9098 139.568C78.9098 128.633 87.7795 119.735 98.7562 119.735Z" fill="white"/>
<path d="M115.272 157.227L131.958 120.346C132.128 120.007 132.4 119.735 132.876 119.735H133.419C133.929 119.735 134.201 120.007 134.337 120.346L150.887 157.227C151.227 157.94 150.785 158.654 149.969 158.654H147.76C147.251 158.654 146.945 158.314 146.843 158.042L142.799 149.009H123.326L119.316 158.042C119.214 158.314 118.875 158.654 118.399 158.654H116.19C115.374 158.654 114.932 157.94 115.272 157.227ZM141.304 145.613C138.619 139.636 135.968 133.625 133.284 127.648H132.842L124.822 145.613H141.27H141.304Z" fill="white"/>
<path d="M160.165 123.98H150.615C150.003 123.98 149.562 123.471 149.562 122.927V121.331C149.562 120.788 150.003 120.279 150.615 120.279H173.86C174.472 120.279 174.913 120.788 174.913 121.331V122.927C174.913 123.471 174.472 123.98 173.86 123.98H164.31V157.635C164.31 158.178 163.801 158.688 163.257 158.688H161.184C160.64 158.688 160.131 158.178 160.131 157.635V123.98H160.165Z" fill="white"/>
<path d="M173.622 157.227L190.308 120.346C190.478 120.007 190.75 119.735 191.225 119.735H191.769C192.279 119.735 192.551 120.007 192.687 120.346L209.237 157.227C209.576 157.94 209.135 158.654 208.319 158.654H206.11C205.6 158.654 205.295 158.314 205.193 158.042L201.149 149.009H181.676L177.666 158.042C177.564 158.314 177.224 158.654 176.748 158.654H174.539C173.724 158.654 173.282 157.94 173.622 157.227ZM199.653 145.613C196.969 139.636 194.318 133.625 191.633 127.648H191.191L183.171 145.613H199.619H199.653Z" fill="white"/>
<path d="M215.218 121.331C215.218 120.788 215.66 120.279 216.271 120.279H230.477C237.069 120.279 242.439 125.441 242.439 131.961C242.439 136.987 239.108 141.232 234.317 143.134L241.827 157.058C242.201 157.771 241.827 158.654 240.909 158.654H238.123C237.613 158.654 237.341 158.382 237.239 158.144L229.933 143.609H219.466V157.567C219.466 158.11 218.956 158.62 218.412 158.62H216.271C215.66 158.62 215.218 158.11 215.218 157.567V121.331ZM230.205 140.01C234.419 140.01 238.089 136.512 238.089 131.995C238.089 127.818 234.419 124.252 230.205 124.252H219.568V139.976H230.205V140.01Z" fill="white"/>
<path d="M248.997 152.914C249.269 152.575 249.541 152.201 249.813 151.862C250.357 151.148 250.968 150.707 251.716 151.352C252.09 151.692 256.1 155.529 260.993 155.529C265.445 155.529 268.334 152.745 268.334 149.518C268.334 145.749 265.037 143.473 258.75 140.858C252.701 138.243 249.099 135.764 249.099 129.516C249.099 125.78 252.056 119.769 260.789 119.769C266.159 119.769 270.169 122.554 270.169 122.554C270.509 122.724 271.154 123.369 270.509 124.422C270.305 124.761 270.067 125.135 269.863 125.474C269.353 126.255 268.81 126.459 267.96 125.984C267.586 125.78 264.12 123.471 260.789 123.471C254.978 123.471 253.211 127.206 253.211 129.516C253.211 133.183 255.998 135.323 260.62 137.259C268.028 140.281 272.786 143.066 272.786 149.416C272.786 155.122 267.348 159.265 260.925 159.265C254.503 159.265 250.085 155.495 249.371 154.816C248.929 154.443 248.386 154.001 249.031 152.948L248.997 152.914Z" fill="white"/>
<path d="M280.704 121.331C280.704 120.788 281.214 120.279 281.757 120.279H283.966C284.51 120.279 285.02 120.788 285.02 121.331V157.601C285.02 158.144 284.51 158.654 283.966 158.654H281.757C281.214 158.654 280.704 158.144 280.704 157.601V121.331Z" fill="white"/>
<path d="M293.686 152.914C293.957 152.575 294.229 152.201 294.501 151.862C295.045 151.148 295.657 150.707 296.404 151.352C296.778 151.692 300.788 155.529 305.682 155.529C310.134 155.529 313.022 152.745 313.022 149.518C313.022 145.749 309.726 143.473 303.439 140.858C297.39 138.243 293.788 135.764 293.788 129.516C293.788 125.78 296.744 119.769 305.478 119.769C310.847 119.769 314.857 122.554 314.857 122.554C315.197 122.724 315.843 123.369 315.197 124.422C314.993 124.761 314.755 125.135 314.551 125.474C314.042 126.255 313.498 126.459 312.648 125.984C312.275 125.78 308.808 123.471 305.478 123.471C299.667 123.471 297.9 127.206 297.9 129.516C297.9 133.183 300.686 135.323 305.308 137.259C312.716 140.281 317.474 143.066 317.474 149.416C317.474 155.122 312.037 159.265 305.614 159.265C299.191 159.265 294.773 155.495 294.059 154.816C293.618 154.443 293.074 154.001 293.72 152.948L293.686 152.914Z" fill="white"/>
<path d="M337.558 121.331C337.558 120.788 338 120.279 338.612 120.279H340.753C341.296 120.279 341.806 120.788 341.806 121.331V154.986H357.608C358.22 154.986 358.662 155.495 358.662 156.039V157.635C358.662 158.178 358.22 158.688 357.608 158.688H338.646C338.034 158.688 337.592 158.178 337.592 157.635V121.331H337.558Z" fill="white"/>
<path d="M360.939 157.227L377.625 120.346C377.795 120.007 378.067 119.735 378.542 119.735H379.086C379.596 119.735 379.868 120.007 380.004 120.346L396.554 157.227C396.893 157.94 396.452 158.654 395.636 158.654H393.427C392.917 158.654 392.611 158.314 392.51 158.042L388.466 149.009H368.993L364.983 158.042C364.881 158.314 364.541 158.654 364.065 158.654H361.856C361.041 158.654 360.599 157.94 360.939 157.227ZM386.97 145.613C384.286 139.636 381.635 133.625 378.95 127.648H378.508L370.488 145.613H386.936H386.97Z" fill="white"/>
<path d="M402.569 121.331C402.569 120.788 403.01 120.279 403.622 120.279H415.618C422.313 120.279 426.867 124.592 426.867 130.365C426.867 134.576 424.08 137.666 421.497 139.127C424.42 140.315 428.09 143.032 428.09 148.058C428.09 154.205 423.197 158.62 416.128 158.62H403.622C403.01 158.62 402.569 158.11 402.569 157.567V121.331ZM416.536 154.986C420.546 154.986 423.434 151.964 423.434 148.024C423.434 144.085 419.866 141.3 415.584 141.3H406.545V154.986H416.536ZM415.618 137.496C419.832 137.496 422.211 134.474 422.211 130.636C422.211 126.799 419.866 124.048 415.618 124.048H406.681V137.462H415.618V137.496Z" fill="white"/>
</svg>
