<svg width="523" height="383" viewBox="0 0 523 383" fill="none" xmlns="http://www.w3.org/2000/svg">
<g clip-path="url(#clip0_1011_658)">
<path d="M80.99 72.6201C56.99 139.02 48.66 220.62 47.49 253.12C29.99 488.62 255.99 332.39 326.99 330.12C365.49 328.89 453.99 374.12 476.99 253.12C499.99 132.12 474.99 105.12 326.99 40.6201C178.99 -23.8799 110.99 -10.3799 80.99 72.6201Z" fill="#E8E7FE"/>
<path d="M519.38 282.17C516.76 281.78 514.14 281.37 511.52 280.94C488.88 277.23 466.46 272.06 444.87 264.04C442.63 263.23 440.3 262.32 437.86 261.31C428.31 257.57 418.34 253.72 407.87 252.2C393.34 250.07 379.92 253.21 370.77 260.7C360.3 248.96 359.79 231.85 362.64 220.51C366.1 206.84 374.53 193.48 389.27 178.5C404.72 162.81 419.05 154.31 432.67 152.48C435.41 152.48 438.16 152.48 440.8 152.18C442.94 151.98 444.56 150.16 444.46 148.03C444.46 145.9 442.63 144.18 440.5 144.08C437.76 143.98 434.91 144.08 432.47 144.38C423.32 144.18 414.28 141.95 406.14 137.9C404.51 137.09 402.89 136.18 401.26 135.27C398.21 133.55 395.06 131.83 391.6 130.41C374.52 123.83 356.02 129.6 341.8 135.37L339.16 136.48C328.69 140.73 317.82 145.19 307.55 143.06C306.63 142.86 305.92 142.65 305.41 142.35C305.41 142.05 305.51 141.74 305.61 141.54C305.71 139.92 304.9 138.4 303.47 137.59C303.37 136.58 302.76 135.57 301.95 134.86C301.14 134.15 300.02 133.85 299 133.95C298.09 133.95 297.27 134.46 296.66 135.06C291.27 131.21 288.12 122.41 285.28 114.51L284.77 113.09C275.42 87.1801 254.07 63.5901 224.7 46.4801C213.21 39.8001 203.46 35.7501 193.7 33.6201C179.27 30.4801 164.53 31.6001 150.2 32.7101L144.92 33.1101C109.34 35.7401 73.2601 34.9301 37.7901 30.6801C36.6701 30.5801 35.5501 30.8801 34.7401 31.4901C33.9301 32.2001 33.3201 33.2101 33.2101 34.2201C32.1901 44.5501 39.6101 53.5601 47.3401 57.8101C49.8801 59.2301 52.7301 60.3401 56.0801 61.3501L46.0201 64.5901C44.5001 65.1001 43.4801 66.4101 43.2801 67.9301C43.0801 69.4501 43.7901 71.0701 45.1101 71.8801C56.4901 79.3701 69.3001 84.6401 82.7201 87.6701C80.3801 87.9701 78.0401 88.2801 75.7101 88.4801C74.1901 88.6801 72.7601 89.6901 72.2501 91.1101C71.7401 92.6301 72.1501 94.2501 73.1701 95.3601C84.4501 106.5 98.8801 114.29 114.54 117.63C109.56 119.15 104.58 120.77 99.7001 122.49C98.2801 123 97.1601 124.31 97.0601 125.83C96.8601 127.35 97.5701 128.87 98.8901 129.68C118.81 142.64 142.6 150.84 166.58 152.96C156.82 156.6 146.35 158.63 136.09 158.93C134.77 158.93 133.45 159.64 132.74 160.85C132.03 161.96 131.93 163.38 132.44 164.7C135.69 172.19 142.3 177.86 150.23 179.88C151.76 180.28 153.28 180.59 154.8 180.79C157.85 181.3 160.69 181.8 162.42 183.32C163.03 183.83 163.13 185.34 162.72 186.46C161.81 186.36 160.99 186.46 160.18 186.97C159.27 187.48 158.55 188.39 158.25 189.5C145.75 197.9 137.72 211.77 130.7 223.92C125.42 233.13 119.93 242.65 112.81 250.04C100.61 262.69 81.8101 270.99 56.8001 274.64C40.0001 277.05 22.9801 277.38 6.00011 276.76C-1.48989 276.77 -1.58989 284.77 3.57011 284.88C21.6801 285.65 39.9101 285.38 58.0201 282.74C84.8501 278.89 105.28 269.78 118.8 255.71C126.63 247.61 132.32 237.69 137.91 227.97C146.14 213.7 153.97 200.13 167.59 193.45C168.71 192.94 169.52 191.83 169.72 190.72C169.72 190.62 169.92 190.52 169.92 190.32C171.95 186.47 171.75 180.5 167.78 177.16C164.32 174.12 159.95 173.42 156.09 172.71C154.87 172.51 153.55 172.31 152.33 172C148.98 171.09 145.82 169.27 143.38 166.64C158.22 165.12 172.76 160.47 185.56 152.97C187.19 152.06 187.9 150.14 187.39 148.31C186.88 146.59 185.26 145.37 183.32 145.37C158.11 146.18 132.6 139.7 110.65 127.35C120.51 124.11 130.67 121.28 140.74 119.05C142.88 118.54 144.2 116.52 143.89 114.39C143.59 112.26 141.65 110.85 139.42 111.05C120.51 112.97 100.7 107.1 85.5501 95.3601C93.9901 94.1501 102.32 92.3201 110.45 89.9901C112.38 89.3801 113.7 87.4601 113.4 85.4301C113.1 83.4101 111.47 81.9901 109.23 81.9901C91.4401 82.5001 73.0501 78.0401 57.0901 69.4401L74.1701 63.8701C76.0001 63.2601 77.1201 61.4401 77.0201 59.6201C76.8201 57.7001 75.2901 56.1801 73.4601 55.9801C66.1401 55.1701 57.9101 54.1601 51.4001 50.6101C47.5401 48.4801 43.0701 44.3301 41.7401 39.1701C76.0901 43.0201 111.06 43.7301 145.52 41.0901L150.8 40.6901C164.52 39.5801 178.65 38.4601 191.97 41.4001C200.81 43.3201 209.86 47.1701 220.53 53.3501C248.18 69.4501 268.3 91.6201 277.04 115.61L277.55 117.03C281.31 127.36 285.89 140.21 296.66 143.86C297.17 144.97 297.68 145.89 298.39 146.7C300.63 149.23 303.78 150.14 305.91 150.55C318.72 153.18 330.71 148.32 342.3 143.57L344.94 142.46C357.75 137.3 374.31 132.03 388.75 137.6C391.7 138.71 394.44 140.33 397.39 141.95C399.12 142.86 400.85 143.87 402.57 144.79C406.33 146.61 410.19 148.23 414.26 149.34C404.2 154.1 394.03 161.69 383.46 172.42C367.71 188.41 358.56 202.99 354.8 218.18C350.33 235.79 354.39 254.42 365.17 266.16C363.44 268.39 361.92 270.61 360.6 272.64C358.16 276.18 355.92 279.62 352.98 282.26C345.36 289.24 334.07 290.97 323 291.78C293.32 294.01 263.74 291.68 234.88 284.8C216.99 280.55 197.98 270.42 198.39 254.63C198.8 241.27 213.64 232.16 227.66 232.06C240.77 232.06 253.48 237.93 265.78 243.5L269.95 245.42C285.1 252.3 301.46 258.07 317.72 254.03C327.48 251.6 336.63 244.21 341 235.1C344.56 227.81 344.76 220.12 341.61 213.44C338.36 206.46 332.46 202.1 326.46 197.65C325.04 196.64 323.61 195.52 322.29 194.41C319.65 192.29 311.11 184.69 313.34 177C314.05 174.37 316.08 171.94 319.64 169C329.3 161.1 341.49 156.35 353.99 155.74C355.11 155.74 356.13 155.23 356.84 154.42C357.55 153.61 357.96 152.6 357.86 151.49C357.86 150.38 357.35 149.36 356.54 148.66C355.73 147.95 354.71 147.55 353.59 147.65C339.36 148.36 325.44 153.72 314.46 162.73C311.41 165.26 307.14 169.21 305.52 174.68C303.08 183.08 307.35 192.8 317.11 200.7C318.64 201.91 320.16 203.03 321.68 204.24C326.86 208.09 331.74 211.73 334.08 216.89C336.11 221.24 335.91 226.51 333.47 231.57C330.12 238.55 323.1 244.33 315.58 246.15C301.66 249.59 286.92 244.23 273.09 237.95L269.02 236.03C255.91 230.06 242.29 223.88 227.45 223.88H227.04C209.56 223.98 190.55 236.33 190.04 254.35C189.33 280.37 222.57 290.29 232.83 292.72C255.29 298.08 278.37 300.72 301.34 300.72C308.66 300.72 316.18 300.42 323.5 299.91C335.39 299 348.91 296.97 358.36 288.17C362.02 284.83 364.66 280.88 367.2 277.04C368.62 275.02 370.05 272.89 371.47 270.97C372.79 270.97 374.11 270.46 374.93 269.45C375.64 268.64 375.95 267.53 375.84 266.51C383.16 260.44 394.34 257.91 406.54 259.73C416.2 261.15 425.65 264.79 435.1 268.44C437.44 269.35 439.67 270.26 442.01 271.07C464.32 279.37 487.34 284.68 510.53 288.48C512.84 288.86 515.16 289.21 517.48 289.56C521.66 289.91 522.04 288.81 522.48 286.9C522.92 284.99 522.56 282.82 519.37 282.21L519.38 282.17Z" fill="#5952FB"/>
</g>
<defs>
<clipPath id="clip0_1011_658">
<rect width="522.64" height="383.01" fill="white"/>
</clipPath>
</defs>
</svg>
