<svg width="371" height="42" viewBox="0 0 371 42" fill="none" xmlns="http://www.w3.org/2000/svg">
<path d="M21.0865 0C26.972 0 31.2326 2.02062 35.1683 5.41237C35.6377 5.88144 35.7099 6.56701 35.2405 7.03608L33.6518 8.6237C33.1824 9.20102 32.713 9.16494 32.1353 8.55154C29.1023 5.91752 24.9861 4.18556 21.0143 4.18556C11.807 4.18556 4.76613 11.9433 4.76613 20.9639C4.76613 29.9845 11.807 37.6701 21.0143 37.6701C26.0693 37.6701 29.0662 35.6495 32.1353 33.3041C32.713 32.835 33.1824 32.9072 33.5435 33.1237L35.2766 34.7113C35.746 35.0721 35.6377 35.866 35.2044 36.2989C31.2326 40.1598 26.2137 41.9639 21.0504 41.9639C9.38784 41.9639 0 32.6907 0 21.0721C0 9.4536 9.42394 0 21.0865 0Z" fill="#11A2BB"/>
<path d="M38.6347 39.835L56.3633 0.649484C56.5438 0.288659 56.8326 0 57.3381 0H57.9159C58.4575 0 58.7463 0.288659 58.8907 0.649484L76.4749 39.835C76.836 40.5927 76.3666 41.3505 75.5 41.3505H73.153C72.6114 41.3505 72.2865 40.9897 72.1781 40.701L67.8814 31.1031H47.1921L42.9314 40.701C42.8231 40.9897 42.462 41.3505 41.9565 41.3505H39.6096C38.743 41.3505 38.2736 40.5927 38.6347 39.835ZM66.2927 27.4948C63.4402 21.1443 60.6239 14.7577 57.7714 8.40721H57.302L48.7808 27.4948H66.2566H66.2927Z" fill="#11A2BB"/>
<path d="M86.3321 4.51038H76.1861C75.5361 4.51038 75.0667 3.96914 75.0667 3.39182V1.69595C75.0667 1.11863 75.5361 0.577393 76.1861 0.577393H100.883C101.533 0.577393 102.003 1.11863 102.003 1.69595V3.39182C102.003 3.96914 101.533 4.51038 100.883 4.51038H90.7372V40.2681C90.7372 40.8454 90.1956 41.3866 89.6179 41.3866H87.4153C86.8376 41.3866 86.296 40.8454 86.296 40.2681V4.51038H86.3321Z" fill="#11A2BB"/>
<path d="M100.63 39.835L118.359 0.649484C118.54 0.288659 118.828 0 119.334 0H119.912C120.453 0 120.742 0.288659 120.887 0.649484L138.471 39.835C138.832 40.5927 138.362 41.3505 137.496 41.3505H135.149C134.607 41.3505 134.282 40.9897 134.174 40.701L129.877 31.1031H109.188L104.927 40.701C104.819 40.9897 104.458 41.3505 103.952 41.3505H101.605C100.739 41.3505 100.269 40.5927 100.63 39.835ZM128.288 27.4948C125.436 21.1443 122.62 14.7577 119.767 8.40721H119.298L110.777 27.4948H128.252H128.288Z" fill="#11A2BB"/>
<path d="M144.826 1.69595C144.826 1.11863 145.295 0.577393 145.945 0.577393H161.038C168.043 0.577393 173.748 6.06192 173.748 12.9898C173.748 18.33 170.209 22.8403 165.118 24.8609L173.098 39.6547C173.495 40.4124 173.098 41.3506 172.123 41.3506H169.162C168.62 41.3506 168.331 41.0619 168.223 40.8093L160.46 25.366H149.339V40.1959C149.339 40.7732 148.798 41.3145 148.22 41.3145H145.945C145.295 41.3145 144.826 40.7732 144.826 40.1959V1.69595ZM160.749 21.5413C165.226 21.5413 169.126 17.8248 169.126 13.0258C169.126 8.58769 165.226 4.79904 160.749 4.79904H149.448V21.5052H160.749V21.5413Z" fill="#11A2BB"/>
<path d="M180.716 35.2526C181.005 34.8918 181.294 34.4949 181.582 34.134C182.16 33.3763 182.81 32.9072 183.604 33.5928C184.002 33.9536 188.262 38.0309 193.462 38.0309C198.192 38.0309 201.261 35.0722 201.261 31.6444C201.261 27.6392 197.758 25.2217 191.079 22.4433C184.652 19.665 180.824 17.031 180.824 10.3918C180.824 6.42272 183.965 0.0361328 193.245 0.0361328C198.95 0.0361328 203.211 2.99489 203.211 2.99489C203.572 3.17531 204.258 3.86087 203.572 4.97943C203.355 5.34025 203.102 5.73716 202.886 6.09798C202.344 6.92788 201.766 7.14437 200.864 6.63922C200.466 6.42273 196.784 3.96912 193.245 3.96912C187.071 3.96912 185.193 7.93819 185.193 10.3918C185.193 14.2887 188.154 16.5619 193.064 18.6186C200.936 21.8299 205.991 24.7887 205.991 31.5361C205.991 37.598 200.214 42 193.389 42C186.565 42 181.871 37.9949 181.113 37.2732C180.644 36.8763 180.066 36.4072 180.752 35.2887L180.716 35.2526Z" fill="#11A2BB"/>
<path d="M214.404 1.69595C214.404 1.11863 214.945 0.577393 215.523 0.577393H217.87C218.448 0.577393 218.989 1.11863 218.989 1.69595V40.232C218.989 40.8093 218.448 41.3506 217.87 41.3506H215.523C214.945 41.3506 214.404 40.8093 214.404 40.232V1.69595Z" fill="#11A2BB"/>
<path d="M228.197 35.2526C228.486 34.8918 228.774 34.4949 229.063 34.134C229.641 33.3763 230.291 32.9072 231.085 33.5928C231.482 33.9536 235.743 38.0309 240.943 38.0309C245.673 38.0309 248.742 35.0722 248.742 31.6444C248.742 27.6392 245.239 25.2217 238.559 22.4433C232.132 19.665 228.305 17.031 228.305 10.3918C228.305 6.42272 231.446 0.0361328 240.726 0.0361328C246.431 0.0361328 250.691 2.99489 250.691 2.99489C251.052 3.17531 251.739 3.86087 251.052 4.97943C250.836 5.34025 250.583 5.73716 250.366 6.09798C249.825 6.92788 249.247 7.14437 248.344 6.63922C247.947 6.42273 244.264 3.96912 240.726 3.96912C234.552 3.96912 232.674 7.93819 232.674 10.3918C232.674 14.2887 235.635 16.5619 240.545 18.6186C248.417 21.8299 253.472 24.7887 253.472 31.5361C253.472 37.598 247.695 42 240.87 42C234.046 42 229.352 37.9949 228.594 37.2732C228.125 36.8763 227.547 36.4072 228.233 35.2887L228.197 35.2526Z" fill="#11A2BB"/>
<path d="M274.811 1.69595C274.811 1.11863 275.28 0.577393 275.93 0.577393H278.205C278.783 0.577393 279.324 1.11863 279.324 1.69595V37.4537H296.114C296.764 37.4537 297.233 37.9949 297.233 38.5722V40.2681C297.233 40.8454 296.764 41.3866 296.114 41.3866H275.966C275.316 41.3866 274.847 40.8454 274.847 40.2681V1.69595H274.811Z" fill="#11A2BB"/>
<path d="M299.653 39.835L317.381 0.649484C317.562 0.288659 317.851 0 318.356 0H318.934C319.475 0 319.764 0.288659 319.909 0.649484L337.493 39.835C337.854 40.5927 337.384 41.3505 336.518 41.3505H334.171C333.629 41.3505 333.304 40.9897 333.196 40.701L328.899 31.1031H308.21L303.949 40.701C303.841 40.9897 303.48 41.3505 302.974 41.3505H300.627C299.761 41.3505 299.291 40.5927 299.653 39.835ZM327.311 27.4948C324.458 21.1443 321.642 14.7577 318.789 8.40721H318.32L309.799 27.4948H327.274H327.311Z" fill="#11A2BB"/>
<path d="M343.884 1.69595C343.884 1.11863 344.353 0.577393 345.003 0.577393H357.749C364.862 0.577393 369.7 5.15986 369.7 11.2939C369.7 15.7681 366.739 19.0516 363.995 20.6031C367.1 21.866 371 24.7526 371 30.0928C371 36.6238 365.801 41.3145 358.29 41.3145H345.003C344.353 41.3145 343.884 40.7732 343.884 40.1959V1.69595ZM358.724 37.4536C362.984 37.4536 366.053 34.2423 366.053 30.0567C366.053 25.8712 362.262 22.9124 357.713 22.9124H348.108V37.4536H358.724ZM357.749 18.8712C362.226 18.8712 364.753 15.6599 364.753 11.5825C364.753 7.50522 362.262 4.58254 357.749 4.58254H348.253V18.8351H357.749V18.8712Z" fill="#11A2BB"/>
</svg>
