<svg width="1437" height="270" viewBox="0 0 1437 270" fill="none" xmlns="http://www.w3.org/2000/svg">
<path opacity="0.45" d="M1432.71 193.571C1432.2 192.66 1431.28 191.952 1430.17 191.648C1429.15 191.344 1428.03 191.547 1427.12 192.053C1426.2 192.559 1425.49 193.47 1425.18 194.584C1424.88 195.596 1425.08 196.709 1425.59 197.62C1429.76 204.707 1428.84 212.198 1427.42 217.158C1424.58 226.775 1417.36 235.582 1408.31 240.137C1391.64 248.64 1371.42 247.021 1353.73 244.794C1336.86 242.668 1319.38 239.732 1302.5 236.999C1241.42 226.876 1178.3 216.449 1119.45 236.695C1111.82 239.327 1104.4 242.465 1097.19 245.401C1085.9 250.058 1074.32 254.917 1062.43 257.751C1038.44 263.42 1013.43 260.889 989.243 258.561C943.911 254.107 896.952 249.551 853.348 233.355C851.112 232.545 848.774 231.634 846.335 230.621C836.78 226.876 826.819 223.029 816.35 221.511C801.815 219.385 788.399 222.523 779.251 230.014C768.782 218.271 768.274 201.163 771.12 189.826C774.575 176.16 783.012 162.797 797.75 147.815C813.199 132.125 827.531 123.621 841.151 121.799C843.895 121.799 846.639 121.799 849.282 121.495C851.417 121.293 853.043 119.471 852.941 117.345C852.941 115.219 851.112 113.498 848.977 113.397C846.233 113.296 843.387 113.397 840.948 113.701C831.8 113.498 822.754 111.271 814.622 107.222C812.996 106.412 811.37 105.501 809.743 104.59C806.694 102.869 803.543 101.148 800.088 99.7309C783.012 93.1509 764.513 98.921 750.283 104.691L747.64 105.805C737.171 110.056 726.296 114.51 716.03 112.385C715.115 112.182 714.403 111.98 713.895 111.676C713.895 111.372 713.997 111.069 714.098 110.866C714.2 109.247 713.387 107.728 711.964 106.918C711.862 105.906 711.253 104.894 710.439 104.185C709.626 103.476 708.508 103.173 707.492 103.274C706.577 103.274 705.764 103.78 705.154 104.387C699.767 100.541 696.616 91.7337 693.77 83.8377L693.262 82.4205C683.911 56.5056 662.566 32.919 633.192 15.8111C621.706 9.1299 611.948 5.08069 602.191 2.95486C587.758 -0.183277 573.02 0.930254 558.688 2.04379L553.403 2.44871C517.828 5.08069 481.745 4.27085 446.272 0.0191831C445.154 -0.082047 444.036 0.221644 443.223 0.829024C442.41 1.53764 441.8 2.54994 441.698 3.56224C440.682 13.8877 448.102 22.8972 455.826 27.1489C458.368 28.5661 461.214 29.6796 464.568 30.6919L454.505 33.9313C452.98 34.4374 451.964 35.7534 451.761 37.2719C451.558 38.7903 452.269 40.41 453.59 41.2199C464.974 48.7109 477.781 53.9748 491.198 57.0118C488.86 57.3154 486.522 57.6191 484.185 57.8216C482.66 58.0241 481.237 59.0364 480.729 60.4536C480.221 61.972 480.627 63.5917 481.644 64.7052C492.926 75.8406 507.359 83.6353 523.012 86.9759C518.031 88.4943 513.051 90.114 508.172 91.8349C506.749 92.3411 505.631 93.6571 505.529 95.1755C505.326 96.694 506.038 98.2124 507.359 99.0223C527.281 111.98 551.065 120.179 575.052 122.305C565.295 125.949 554.826 127.974 544.56 128.278C543.239 128.278 541.917 128.986 541.206 130.201C540.494 131.315 540.393 132.732 540.901 134.048C544.153 141.539 550.76 147.208 558.688 149.232C560.213 149.637 561.737 149.941 563.262 150.143C566.311 150.65 569.157 151.156 570.885 152.674C571.495 153.18 571.597 154.699 571.19 155.812C570.275 155.711 569.462 155.812 568.649 156.319C567.734 156.825 567.023 157.736 566.718 158.849C554.216 167.251 546.186 181.12 539.173 193.268C533.887 202.479 528.399 211.995 521.284 219.385C509.087 232.039 490.283 240.34 465.279 243.984C433.567 248.539 401.042 245.705 369.533 242.972C357.336 241.858 344.732 240.744 332.637 238.011C327.859 236.898 323.082 235.481 318.203 234.063C313.833 232.747 309.259 231.431 304.583 230.318C279.376 224.244 253.457 224.75 228.352 225.256C206.702 225.661 184.341 226.066 162.895 232.444C155.881 234.569 148.97 237.201 142.261 239.935C136.671 242.162 130.776 244.49 124.982 246.413C85.6468 259.067 40.2128 252.082 6.46774 228.091C4.63819 226.775 2.09714 227.18 0.7758 229.002C-0.545544 230.824 -0.138977 233.355 1.69058 234.671C25.2715 251.374 54.7476 260.586 84.732 260.586C99.4701 260.586 113.802 258.359 127.422 254.006C133.52 252.082 139.517 249.653 145.311 247.426C151.816 244.895 158.524 242.162 165.232 240.238C185.561 234.165 207.414 233.76 228.454 233.355C253.051 232.849 278.461 232.444 302.652 238.214C307.124 239.327 311.597 240.542 315.967 241.858C320.744 243.275 325.827 244.692 330.807 245.907C343.309 248.843 356.319 249.956 368.821 251.07C400.838 253.904 433.872 256.84 466.499 252.082C493.332 248.236 513.762 239.125 527.281 225.054C535.107 216.955 540.799 207.035 546.389 197.317C554.622 183.043 562.449 169.478 576.069 162.797C577.187 162.291 578 161.178 578.203 160.064C578.203 159.963 578.407 159.862 578.407 159.659C580.439 155.812 580.236 149.84 576.272 146.499C572.816 143.462 568.446 142.754 564.583 142.045C563.364 141.843 562.042 141.64 560.823 141.336C557.468 140.425 554.318 138.603 551.878 135.971C566.718 134.453 581.253 129.796 594.059 122.305C595.686 121.394 596.397 119.471 595.889 117.649C595.381 115.928 593.755 114.713 591.823 114.713C566.616 115.523 541.104 109.044 519.149 96.694C529.009 93.4546 539.173 90.6202 549.235 88.3931C551.37 87.8869 552.691 85.8624 552.386 83.7365C552.081 81.6107 550.15 80.1935 547.914 80.3959C529.009 82.3193 509.188 76.4479 494.044 64.7052C502.48 63.4905 510.815 61.6683 518.946 59.34C520.877 58.7327 522.199 56.8093 521.894 54.7847C521.589 52.7601 519.963 51.3429 517.726 51.3429C499.939 51.849 481.542 47.3949 465.584 38.7903L482.66 33.2227C484.49 32.6153 485.608 30.7931 485.506 28.971C485.303 27.0476 483.778 25.5292 481.948 25.3267C474.63 24.5169 466.397 23.5046 459.892 19.9615C456.03 17.8357 451.558 13.6853 450.236 8.52252C484.591 12.3693 519.556 13.0779 554.013 10.4459L559.298 10.041C573.02 8.92744 587.148 7.8139 600.463 10.7496C609.306 12.6729 618.352 16.5197 629.024 22.6947C656.671 38.7903 676.796 60.9597 685.537 84.9513L686.045 86.3685C689.806 96.694 694.38 109.55 705.154 113.194C705.662 114.308 706.17 115.219 706.882 116.029C709.118 118.56 712.269 119.471 714.403 119.876C727.21 122.508 739.204 117.649 750.791 112.891L753.434 111.777C766.241 106.615 782.808 101.351 797.242 106.918C800.189 108.032 802.934 109.651 805.881 111.271C807.609 112.182 809.337 113.194 811.065 114.106C814.826 115.928 818.688 117.547 822.754 118.661C812.691 123.419 802.527 131.011 791.956 141.741C776.202 157.736 767.054 172.313 763.293 187.497C758.821 205.111 762.887 223.738 773.661 235.481C771.933 237.708 770.408 239.935 769.087 241.959C766.647 245.502 764.411 248.944 761.464 251.576C753.84 258.561 742.558 260.282 731.479 261.092C701.8 263.319 672.222 260.991 643.356 254.107C625.467 249.855 606.46 239.732 606.866 223.94C607.273 210.578 622.113 201.467 636.139 201.366C649.251 201.366 661.956 207.237 674.255 212.805L678.422 214.728C693.567 221.612 709.931 227.382 726.194 223.333C735.951 220.903 745.099 213.514 749.47 204.403C753.027 197.114 753.231 189.421 750.08 182.74C746.827 175.755 740.932 171.402 734.935 166.948C733.512 165.935 732.089 164.822 730.768 163.708C728.125 161.583 719.587 153.99 721.823 146.297C722.535 143.665 724.568 141.235 728.125 138.3C737.781 130.404 749.978 125.646 762.48 125.038C763.598 125.038 764.615 124.532 765.326 123.722C766.037 122.913 766.444 121.9 766.342 120.787C766.342 119.673 765.834 118.661 765.021 117.952C764.208 117.244 763.191 116.839 762.073 116.94C747.844 117.649 733.919 123.014 722.941 132.023C719.892 134.554 715.623 138.502 713.997 143.968C711.557 152.371 715.826 162.089 725.584 169.985C727.109 171.199 728.633 172.313 730.158 173.528C735.342 177.374 740.22 181.019 742.558 186.181C744.591 190.534 744.388 195.798 741.948 200.86C738.594 207.845 731.581 213.615 724.059 215.437C710.134 218.879 695.396 213.514 681.573 207.237L677.507 205.314C664.396 199.341 650.776 193.166 635.936 193.166H635.529C618.047 193.268 599.04 205.618 598.532 223.637C597.82 249.653 631.057 259.573 641.323 262.003C663.786 267.368 686.858 270 709.83 270C717.148 270 724.669 269.696 731.987 269.19C743.88 268.279 757.398 266.254 766.851 257.447C770.51 254.107 773.152 250.159 775.693 246.312C777.116 244.288 778.539 242.162 779.962 240.238C781.284 240.238 782.605 239.732 783.418 238.72C784.13 237.91 784.435 236.797 784.333 235.784C791.651 229.71 802.832 227.18 815.029 229.002C824.685 230.419 834.138 234.063 843.59 237.708C845.928 238.619 848.164 239.53 850.502 240.34C895.123 256.941 942.589 261.598 988.531 266.052C1012.21 268.38 1039.15 271.012 1064.36 265.04C1076.96 262.104 1088.85 257.043 1100.54 252.285C1107.66 249.349 1114.97 246.312 1122.29 243.781C1179.21 224.244 1241.21 234.468 1301.39 244.389C1318.26 247.223 1335.74 250.058 1352.92 252.285C1371.82 254.714 1393.57 256.435 1412.28 246.818C1423.15 241.251 1432.1 230.52 1435.45 218.879C1438.2 209.566 1437.28 200.556 1432.81 192.964L1432.71 193.571Z" fill="#08C8E9" fill-opacity="0.2"/>
</svg>
